<?xml version="1.0" encoding="UTF-8" standalone="no"?>
<svg width="800" height="600" viewBox="0 0 800 600" xmlns="http://www.w3.org/2000/svg" xmlns:xlink="http://www.w3.org/1999/xlink">
  <title>디지털 리터러시 교육 게이미피케이션 모델</title>
  <defs>
    <marker id="arrow-marker" markerWidth="10" markerHeight="7" refX="9" refY="3.5" orient="auto" markerUnits="strokeWidth">
      <path d="M0,0 L10,3.5 L0,7 z" fill="#6D28D9" />
    </marker>
    <linearGradient id="progress-grad" x1="0%" y1="0%" x2="100%" y2="0%">
      <stop offset="0%" stop-color="#8B5CF6" />
      <stop offset="100%" stop-color="#C4B5FD" />
    </linearGradient>
    <filter id="shadow" x="-2" y="-2" width="110%" height="110%">
      <feDropShadow dx="2" dy="2" stdDeviation="3" flood-opacity="0.3"/>
    </filter>
    <style>
      .game-node { fill: #FFFFFF; stroke: #C4B5FD; stroke-width: 2; rx: 12; ry: 12; filter: url(#shadow); }
      .game-node-active { fill: #EDE9FE; stroke: #8B5CF6; stroke-width: 3; }
      .game-node-special { fill: #F5F3FF; stroke: #6D28D9; stroke-width: 3; stroke-dasharray: 5, 3;}
      .game-connector { stroke: #C4B5FD; stroke-width: 3; marker-end: url(#arrow-marker); }
      .game-text { font-family: 'Noto Sans KR', sans-serif; font-size: 14px; fill: #4C1D95; text-anchor: middle; }
      .game-text-title { font-family: 'Noto Sans KR', sans-serif; font-size: 16px; font-weight: bold; fill: #6D28D9; text-anchor: middle; }
      .game-text-subtitle { font-family: 'Noto Sans KR', sans-serif; font-size: 12px; fill: #7C3AED; text-anchor: middle; }
      .game-badge { fill: #8B5CF6; stroke: #FFFFFF; stroke-width: 2; }
      .game-badge-text { font-family: 'Noto Sans KR', sans-serif; font-size: 12px; fill: #FFFFFF; text-anchor: middle; dominant-baseline: middle; }
      .game-progress { fill: #F5F3FF; stroke: #C4B5FD; stroke-width: 1; rx: 10; ry: 10; }
      .game-progress-fill { fill: url(#progress-grad); rx: 10; ry: 10; }
      .game-counter { font-family: 'Noto Sans KR', sans-serif; font-size: 14px; font-weight: bold; fill: #6D28D9; text-anchor: middle; }
      .game-medal { fill: none; stroke-width: 2; }
      .game-medal-bronze { stroke: #B45309; }
      .game-medal-silver { stroke: #6B7280; }
      .game-medal-gold { stroke: #F59E0B; }
    </style>
  </defs>

  <!-- 타이틀 -->
  <text x="400" y="50" class="game-text-title" style="font-size: 24px;">디지털 리터러시 교육 게이미피케이션 모델</text>
  <text x="400" y="80" class="game-text-subtitle" style="font-size: 16px;">상호작용형 학습 요소를 통한 참여와 몰입 유도</text>

  <!-- 경험치 프로그레스 바 -->
  <rect x="250" y="110" width="300" height="30" class="game-progress" />
  <rect x="250" y="110" width="210" height="30" class="game-progress-fill" />
  <text x="400" y="128" class="game-text" style="fill: #FFFFFF; font-weight: bold;">경험치 70%</text>
  <text x="400" y="150" class="game-text-subtitle">디지털 시민 Lv.3</text>

  <!-- 학습 경로 그래프 -->
  <!-- 레벨 1 -->
  <circle cx="400" cy="200" r="15" class="game-badge" />
  <text x="400" y="200" class="game-badge-text">1</text>
  <text x="400" y="230" class="game-text-subtitle">기초 지식</text>

  <!-- 레벨 1에서 분기되는 노드들 -->
  <rect x="160" y="280" width="140" height="60" rx="30" ry="30" class="game-node game-node-active" />
  <text x="230" y="310" class="game-text-title">정보 검색</text>
  <text x="230" y="330" class="game-text-subtitle">완료: 4/4 미션</text>

  <rect x="330" y="280" width="140" height="60" rx="30" ry="30" class="game-node" />
  <text x="400" y="310" class="game-text-title">정보 평가</text>
  <text x="400" y="330" class="game-text-subtitle">완료: 2/4 미션</text>

  <rect x="500" y="280" width="140" height="60" rx="30" ry="30" class="game-node" />
  <text x="570" y="310" class="game-text-title">개인정보</text>
  <text x="570" y="330" class="game-text-subtitle">완료: 1/4 미션</text>

  <!-- 연결선 -->
  <line x1="400" y1="215" x2="330" y2="265" class="game-connector" style="stroke-dasharray: none; marker-end: none;" />
  <line x1="400" y1="215" x2="400" y2="265" class="game-connector" style="stroke-dasharray: none; marker-end: none;" />
  <line x1="400" y1="215" x2="470" y2="265" class="game-connector" style="stroke-dasharray: none; marker-end: none;" />

  <!-- 레벨 2 -->
  <rect x="160" y="380" width="140" height="60" rx="30" ry="30" class="game-node game-node-special" />
  <text x="230" y="410" class="game-text-title">콘텐츠 창작</text>
  <text x="230" y="430" class="game-text-subtitle">도전 퀘스트</text>

  <rect x="330" y="380" width="140" height="60" rx="30" ry="30" class="game-node" />
  <text x="400" y="410" class="game-text-title">디지털 소통</text>
  <text x="400" y="430" class="game-text-subtitle">완료: 0/4 미션</text>

  <rect x="500" y="380" width="140" height="60" rx="30" ry="30" class="game-node" />
  <text x="570" y="410" class="game-text-title">유해환경 대응</text>
  <text x="570" y="430" class="game-text-subtitle">완료: 0/4 미션</text>

  <!-- 연결선 -->
  <line x1="230" y1="340" x2="230" y2="380" class="game-connector" />
  <line x1="230" y1="340" x2="330" y2="380" class="game-connector" />
  <line x1="400" y1="340" x2="400" y2="380" class="game-connector" />
  <line x1="570" y1="340" x2="570" y2="380" class="game-connector" />
  <line x1="570" y1="340" x2="470" y2="380" class="game-connector" />

  <!-- 레벨 3 -->
  <rect x="330" y="480" width="140" height="60" rx="30" ry="30" class="game-node" />
  <text x="400" y="510" class="game-text-title">비판적 사고</text>
  <text x="400" y="530" class="game-text-subtitle">잠금 (Lv.4 필요)</text>

  <!-- 연결선 -->
  <line x1="230" y1="440" x2="330" y2="480" class="game-connector" style="stroke-dasharray: 5, 3;" />
  <line x1="400" y1="440" x2="400" y2="480" class="game-connector" style="stroke-dasharray: 5, 3;" />
  <line x1="570" y1="440" x2="470" y2="480" class="game-connector" style="stroke-dasharray: 5, 3;" />

  <!-- 우측 성취 요소 패널 -->
  <g transform="translate(670, 180)">
    <!-- 배지 섹션 -->
    <text x="0" y="0" class="game-text-title" style="text-anchor: start;">획득한 배지</text>
    
    <circle cx="20" cy="30" r="15" class="game-medal game-medal-gold" />
    <text x="50" y="35" class="game-text" style="text-anchor: start;">정보 탐정</text>
    
    <circle cx="20" cy="60" r="15" class="game-medal game-medal-silver" />
    <text x="50" y="65" class="game-text" style="text-anchor: start;">팩트 체커</text>
    
    <circle cx="20" cy="90" r="15" class="game-medal game-medal-bronze" />
    <text x="50" y="95" class="game-text" style="text-anchor: start;">프라이버시 지킴이</text>
  </g>

  <g transform="translate(670, 350)">
    <!-- 포인트 섹션 -->
    <text x="0" y="0" class="game-text-title" style="text-anchor: start;">학습 포인트</text>
    
    <rect x="0" y="20" width="120" height="30" class="game-progress" />
    <rect x="0" y="20" width="84" height="30" class="game-progress-fill" />
    <text x="60" y="40" class="game-counter" style="fill: #FFFFFF;">8,400 / 12,000</text>
    
    <text x="0" y="70" class="game-text" style="text-anchor: start;">다음 레벨까지: 3,600 포인트</text>
  </g>

  <!-- 좌측 소셜 요소 패널 -->
  <g transform="translate(130, 180)">
    <!-- 랭킹 섹션 -->
    <text x="0" y="0" class="game-text-title" style="text-anchor: start;">이번 주 랭킹</text>
    
    <text x="0" y="30" class="game-text" style="text-anchor: start; font-weight: bold;">3위</text>
    <text x="30" y="30" class="game-text" style="text-anchor: start;">내 순위</text>
    
    <text x="0" y="60" class="game-text" style="text-anchor: start; font-weight: bold;">84점</text>
    <text x="30" y="60" class="game-text" style="text-anchor: start;">주간 활동 점수</text>
    
    <text x="0" y="90" class="game-text" style="text-anchor: start; font-weight: bold;">+12%</text>
    <text x="30" y="90" class="game-text" style="text-anchor: start;">지난주 대비</text>
  </g>
  
</svg>