<?xml version="1.0" encoding="UTF-8" standalone="no"?>
<svg width="700" height="500" viewBox="0 0 700 500" xmlns="http://www.w3.org/2000/svg" xmlns:xlink="http://www.w3.org/1999/xlink">
  <title>추천 알고리즘 작동 원리 시각화</title>
  <defs>
    <marker id="arrowhead-rec" markerWidth="10" markerHeight="7" refX="9" refY="3.5" orient="auto" markerUnits="strokeWidth">
      <path d="M0,0 L10,3.5 L0,7 z" fill="#374151"/>
    </marker>
    <style>
      .node-rect { fill:#ffffff; stroke:#9ca3af; stroke-width:1.5; rx:6; ry:6; filter:drop-shadow(0 1px 2px rgb(0 0 0 / 0.1)); }
      .node-input { fill:#e0f2fe; stroke:#7dd3fc; }
      .node-process { fill:#fef3c7; stroke:#fcd34d; }
      .node-hybrid { fill:#f5d0fe; stroke:#e879f9; }
      .node-rl { fill:#fecaca; stroke:#f87171; }
      .node-output { fill:#dcfce7; stroke:#86efac; }
      .label { font-family:'Noto Sans KR',sans-serif; font-size:13px; fill:#1f2937; text-anchor:middle; dominant-baseline:middle; }
      .label-small { font-family:'Noto Sans KR',sans-serif; font-size:11px; fill:#4b5563; text-anchor:middle; dominant-baseline:middle; }
      .connector { stroke:#6b7280; stroke-width:1.5; fill:none; marker-end:url(#arrowhead-rec); }
      .connector-feedback { stroke:#ef4444; stroke-width:1.5; stroke-dasharray:4,4; fill:none; marker-end:url(#arrowhead-rec); }
    </style>
  </defs>

  <!-- 입력 노드 -->
  <g id="inputs">
    <rect id="input-user" x="30" y="30" width="180" height="80" class="node-rect node-input"/>
    <text x="120" y="55" class="label">사용자 정보</text>
    <text x="120" y="75" class="label-small">(프로필, 진단결과,</text>
    <text x="120" y="90" class="label-small">학습 스타일 등)</text>

    <rect id="input-activity" x="30" y="140" width="180" height="80" class="node-rect node-input"/>
    <text x="120" y="165" class="label">사용자 활동</text>
    <text x="120" y="185" class="label-small">(학습 이력, 평가,</text>
    <text x="120" y="200" class="label-small">피드백 등)</text>

    <rect id="input-content" x="30" y="250" width="180" height="80" class="node-rect node-input"/>
    <text x="120" y="275" class="label">콘텐츠 정보</text>
    <text x="120" y="295" class="label-small">(메타데이터, 유형,</text>
    <text x="120" y="310" class="label-small">난이도, 키워드 등)</text>

    <rect id="input-others" x="30" y="360" width="180" height="80" class="node-rect node-input"/>
    <text x="120" y="385" class="label">다른 사용자 데이터</text>
    <text x="120" y="405" class="label-small">(평가, 행동 패턴 등)</text>
    <text x="120" y="420" class="label-small">[협업 필터링용]</text>
  </g>

  <!-- 처리 노드 -->
  <g id="processing">
    <rect id="engine-cb" x="260" y="100" width="180" height="70" class="node-rect node-process"/>
    <text x="350" y="135" class="label">콘텐츠 기반 필터링</text>

    <rect id="engine-cf" x="260" y="280" width="180" height="70" class="node-rect node-process"/>
    <text x="350" y="315" class="label">협업 필터링</text>

    <rect id="logic-hybrid" x="490" y="190" width="180" height="70" class="node-rect node-hybrid"/>
    <text x="580" y="225" class="label">하이브리드 로직</text>
    <text x="580" y="240" class="label-small">(결과 통합 및 순위 조정)</text>

    <rect id="module-rl" x="260" y="410" width="180" height="60" class="node-rect node-rl"/>
    <text x="350" y="440" class="label">강화 학습 (RL)</text>
  </g>

  <!-- 출력 노드 -->
  <g id="outputs">
    <rect id="output-recommendation" x="490" y="360" width="180" height="80" class="node-rect node-output"/>
    <text x="580" y="390" class="label">맞춤형 콘텐츠</text>
    <text x="580" y="410" class="label">추천 결과</text>
    <text x="580" y="425" class="label-small">(학습 경로, 콘텐츠 목록)</text>
  </g>

  <!-- 입력 → 처리 연결 -->
  <polyline points="210,70 240,70 240,135 260,135" class="connector"/>
  <polyline points="210,180 240,180 240,135 260,135" class="connector"/>
  <polyline points="210,290 240,290 240,135 260,135" class="connector"/>
  <polyline points="210,180 240,180 240,315 260,315" class="connector"/>
  <polyline points="210,400 240,400 240,315 260,315" class="connector"/>

  <!-- 처리 → 하이브리드/출력 연결 -->
  <polyline points="440,135 470,135 470,225 490,225" class="connector"/>
  <polyline points="440,315 470,315 470,225 490,225" class="connector"/>
  <polyline points="580,260 580,360" class="connector"/>

  <!-- 피드백 루프 (RL → 하이브리드) -->
  <polyline points="350,410 350,245 490,245" class="connector-feedback"/>

  <!-- 피드백 루프 (출력 → RL) -->
  <polyline points="580,440 580,500 350,500 350,470" class="connector-feedback"/>
</svg>
