<?xml version="1.0" encoding="UTF-8" standalone="no"?>
<svg width="800" height="600" viewBox="0 0 800 600" xmlns="http://www.w3.org/2000/svg" xmlns:xlink="http://www.w3.org/1999/xlink">
  <title>위험 탐지 모델 시각화</title>
  <defs>
    <marker id="arrowhead-risk" markerWidth="10" markerHeight="7" refX="9" refY="3.5" orient="auto" markerUnits="strokeWidth">
      <path d="M0,0 L10,3.5 L0,7 z" fill="#4b5563" />
    </marker>
    <style>
      .node-rect { fill: #ffffff; stroke: #9ca3af; stroke-width: 1.5; rx: 6; ry: 6; filter: drop-shadow(0 1px 2px rgb(0 0 0 / 0.1)); }
      .node-input { fill: #fee2e2; stroke: #fca5a5; } /* Light Red */
      .node-output { fill: #ffedd5; stroke: #fdba74; } /* Light Orange */
      .node-process { fill: #e0e7ff; stroke: #a5b4fc; } /* Light Indigo */
      .node-analysis { fill: #dbeafe; stroke: #93c5fd; } /* Light Blue */
      .node-score { fill: #fef9c3; stroke: #fde047; } /* Light Yellow */
      .node-level { fill: #fed7aa; stroke: #fb923c; } /* Light Orange */

      .label { font-family: 'Noto Sans KR', sans-serif; font-size: 13px; fill: #1f2937; text-anchor: middle; dominant-baseline: middle; }
      .label-small { font-family: 'Noto Sans KR', sans-serif; font-size: 11px; fill: #4b5563; text-anchor: middle; dominant-baseline: middle; }
      .label-weight { font-family: 'Noto Sans KR', sans-serif; font-size: 10px; fill: #6b7280; text-anchor: middle; dominant-baseline: middle; }
      .connector { stroke: #6b7280; stroke-width: 1.5; fill: none; marker-end: url(#arrowhead-risk); }
    </style>
  </defs>

  <g id="inputs">
    <text x="125" y="25" class="label" style="font-weight:bold;">입력 데이터</text>
    <rect id="input-public" x="30" y="50" width="190" height="50" class="node-rect node-input"/>
    <text x="125" y="75" class="label">여가부 공공데이터</text>

    <rect id="input-pattern" x="30" y="120" width="190" height="50" class="node-rect node-input"/>
    <text x="125" y="145" class="label">미디어 이용 패턴/시간</text>

    <rect id="input-behavior" x="30" y="190" width="190" height="50" class="node-rect node-input"/>
    <text x="125" y="215" class="label">사용자 행동/텍스트</text>

    <rect id="input-profile" x="30" y="260" width="190" height="50" class="node-rect node-input"/>
    <text x="125" y="285" class="label">사용자 프로필/환경</text>
  </g>

  <g id="processing">
    <rect id="preprocess" x="270" y="175" width="160" height="70" class="node-rect node-process"/>
    <text x="350" y="200" class="label">데이터 전처리</text>
    <text x="350" y="220" class="label-small">특징 추출</text>

    <g id="analysis-modules">
        <text x="510" y="25" class="label" style="font-weight:bold;">AI 분석 모델</text>
        <rect id="analysis-ml" x="430" y="50" width="160" height="70" class="node-rect node-analysis"/>
        <text x="510" y="75" class="label">ML 분류 모델</text>
        <text x="510" y="95" class="label-small">(Random Forest,</text>
        <text x="510" y="110" class="label-small">XGBoost 등)</text>

        <rect id="analysis-ts" x="430" y="140" width="160" height="70" class="node-rect node-analysis"/>
        <text x="510" y="165" class="label">시계열 패턴 분석</text>
        <text x="510" y="185" class="label-small">(이용 시간대/빈도</text>
         <text x="510" y="200" class="label-small">변화 감지)</text>

        <rect id="analysis-nlp" x="430" y="230" width="160" height="70" class="node-rect node-analysis"/>
        <text x="510" y="255" class="label">NLP 텍스트 분석</text>
        <text x="510" y="275" class="label-small">(공격성, 유해성,</text>
         <text x="510" y="290" class="label-small">감성 분석)</text>
    </g>

    <rect id="score-calc" x="430" y="340" width="160" height="90" class="node-rect node-score"/>
    <text x="510" y="365" class="label">위험 점수 산출</text>
    <text x="510" y="385" class="label-weight">이용패턴(0.25)</text>
    <text x="510" y="397" class="label-weight">+ 콘텐츠유형(0.20)</text>
    <text x="510" y="409" class="label-weight">+ 이용시간(0.15) ...</text>


    <rect id="level-classify" x="430" y="470" width="160" height="70" class="node-rect node-level"/>
    <text x="510" y="495" class="label">위험 수준 분류</text>
    <text x="510" y="515" class="label-small">(점수 기반)</text>
  </g>

  <g id="outputs">
     <text x="670" y="270" class="label" style="font-weight:bold;">출력 결과</text>
     <rect id="output-risk-type" x="610" y="300" width="160" height="50" class="node-rect node-output"/>
     <text x="690" y="325" class="label">예측된 위험 유형</text>

     <rect id="output-score" x="610" y="370" width="160" height="50" class="node-rect node-output"/>
     <text x="690" y="395" class="label">위험 점수 (0-100)</text>

     <rect id="output-level" x="610" y="440" width="160" height="50" class="node-rect node-output"/>
     <text x="690" y="465" class="label">위험 수준</text>

     <rect id="output-alert" x="610" y="510" width="160" height="50" class="node-rect node-output"/>
     <text x="690" y="535" class="label">-> 알림 시스템 전달</text>
  </g>

  <polyline points="220,75 270,75 270,175" class="connector"/>
  <polyline points="220,145 250,145 250,175 270,175" class="connector"/>
  <polyline points="220,215 270,215" class="connector"/>
  <polyline points="220,285 250,285 250,245 270,245" class="connector"/>

  <polyline points="430,210 410,210 410,85 430,85" class="connector"/> <line x1="430" y1="175" x2="430" y2="175" class="connector"/> <line x1="430" y1="210" x2="430" y2="265" class="connector"/> <polyline points="510,120 510,320 490,320 490,340" class="connector"/> <line x1="510" y1="210" x2="510" y2="340" class="connector"/> <polyline points="510,300 510,320 490,320 490,340" class="connector"/> <line x1="510" y1="430" x2="510" y2="470" class="connector"/>

  <polyline points="590, 85 620, 85 620, 325 610, 325" class="connector"/> <line x1="590" y1="385" x2="610" y2="395" class="connector"/> <line x1="590" y1="505" x2="610" y2="465" class="connector"/> <line x1="770" y1="465" x2="770" y2="535" class="connector"/> </svg>